<svg id="visual" viewBox="0 0 960 540" width="960" height="540" xmlns="http://www.w3.org/2000/svg" xmlns:xlink="http://www.w3.org/1999/xlink" version="1.1"><rect x="0" y="0" width="960" height="540" fill="#000f17"></rect><path d="M0 338L22.8 342.3C45.7 346.7 91.3 355.3 137 365.7C182.7 376 228.3 388 274 389C319.7 390 365.3 380 411.2 374C457 368 503 366 548.8 356.8C594.7 347.7 640.3 331.3 686 324.3C731.7 317.3 777.3 319.7 823 325.7C868.7 331.7 914.3 341.3 937.2 346.2L960 351L960 541L937.2 541C914.3 541 868.7 541 823 541C777.3 541 731.7 541 686 541C640.3 541 594.7 541 548.8 541C503 541 457 541 411.2 541C365.3 541 319.7 541 274 541C228.3 541 182.7 541 137 541C91.3 541 45.7 541 22.8 541L0 541Z" fill="#002c44"></path><path d="M0 368L22.8 370.5C45.7 373 91.3 378 137 378C182.7 378 228.3 373 274 374.5C319.7 376 365.3 384 411.2 385.7C457 387.3 503 382.7 548.8 379.8C594.7 377 640.3 376 686 380.2C731.7 384.3 777.3 393.7 823 400.5C868.7 407.3 914.3 411.7 937.2 413.8L960 416L960 541L937.2 541C914.3 541 868.7 541 823 541C777.3 541 731.7 541 686 541C640.3 541 594.7 541 548.8 541C503 541 457 541 411.2 541C365.3 541 319.7 541 274 541C228.3 541 182.7 541 137 541C91.3 541 45.7 541 22.8 541L0 541Z" fill="#01263b"></path><path d="M0 407L22.8 411.8C45.7 416.7 91.3 426.3 137 428.5C182.7 430.7 228.3 425.3 274 428.3C319.7 431.3 365.3 442.7 411.2 442C457 441.3 503 428.7 548.8 420.2C594.7 411.7 640.3 407.3 686 404C731.7 400.7 777.3 398.3 823 407.5C868.7 416.7 914.3 437.3 937.2 447.7L960 458L960 541L937.2 541C914.3 541 868.7 541 823 541C777.3 541 731.7 541 686 541C640.3 541 594.7 541 548.8 541C503 541 457 541 411.2 541C365.3 541 319.7 541 274 541C228.3 541 182.7 541 137 541C91.3 541 45.7 541 22.8 541L0 541Z" fill="#022032"></path><path d="M0 468L22.8 469.5C45.7 471 91.3 474 137 468.8C182.7 463.7 228.3 450.3 274 447.3C319.7 444.3 365.3 451.7 411.2 457.5C457 463.3 503 467.7 548.8 469.2C594.7 470.7 640.3 469.3 686 469C731.7 468.7 777.3 469.3 823 471.2C868.7 473 914.3 476 937.2 477.5L960 479L960 541L937.2 541C914.3 541 868.7 541 823 541C777.3 541 731.7 541 686 541C640.3 541 594.7 541 548.8 541C503 541 457 541 411.2 541C365.3 541 319.7 541 274 541C228.3 541 182.7 541 137 541C91.3 541 45.7 541 22.8 541L0 541Z" fill="#021b29"></path><path d="M0 483L22.8 482.3C45.7 481.7 91.3 480.3 137 484.8C182.7 489.3 228.3 499.7 274 503.5C319.7 507.3 365.3 504.7 411.2 502C457 499.3 503 496.7 548.8 493.8C594.7 491 640.3 488 686 484.7C731.7 481.3 777.3 477.7 823 475.7C868.7 473.7 914.3 473.3 937.2 473.2L960 473L960 541L937.2 541C914.3 541 868.7 541 823 541C777.3 541 731.7 541 686 541C640.3 541 594.7 541 548.8 541C503 541 457 541 411.2 541C365.3 541 319.7 541 274 541C228.3 541 182.7 541 137 541C91.3 541 45.7 541 22.8 541L0 541Z" fill="#001521"></path></svg>