<svg id="visual" viewBox="0 0 960 540" width="960" height="540" xmlns="http://www.w3.org/2000/svg" xmlns:xlink="http://www.w3.org/1999/xlink" version="1.1"><rect x="0" y="0" width="960" height="540" fill="#001220"></rect><defs><linearGradient id="grad1_0" x1="43.8%" y1="100%" x2="100%" y2="0%"><stop offset="14.444444444444446%" stop-color="#001220" stop-opacity="1"></stop><stop offset="85.55555555555554%" stop-color="#001220" stop-opacity="1"></stop></linearGradient></defs><defs><linearGradient id="grad2_0" x1="0%" y1="100%" x2="56.3%" y2="0%"><stop offset="14.444444444444446%" stop-color="#001220" stop-opacity="1"></stop><stop offset="85.55555555555554%" stop-color="#001220" stop-opacity="1"></stop></linearGradient></defs><g transform="translate(960, 540)"><path d="M-405 0C-362.2 -30.2 -319.5 -60.5 -311.9 -101.4C-304.4 -142.2 -332.1 -193.8 -326 -236.9C-320 -280 -280.3 -314.6 -238.1 -327.7C-195.8 -340.7 -151 -332.1 -110.9 -341.4C-70.8 -350.7 -35.4 -377.9 0 -405L0 0Z" fill="#1b3951"></path></g><g transform="translate(0, 0)"><path d="M405 0C387.4 37 369.9 74 361.4 117.4C352.9 160.9 353.6 210.8 327.7 238.1C301.7 265.3 249.3 270 212.8 292.9C176.3 315.7 155.8 356.8 123 378.5C90.2 400.2 45.1 402.6 0 405L0 0Z" fill="#1b3951"></path></g></svg>